<?xml version="1.0" standalone="no"?><svg xmlns="http://www.w3.org/2000/svg" viewBox="0 0 1440 320"><path fill="#0099ff" fill-opacity="0.5" d="M0,256L30,218.7C60,181,120,107,180,80C240,53,300,75,360,80C420,85,480,75,540,69.3C600,64,660,64,720,64C780,64,840,64,900,85.3C960,107,1020,149,1080,186.7C1140,224,1200,256,1260,224C1320,192,1380,96,1410,48L1440,0L1440,0L1410,0C1380,0,1320,0,1260,0C1200,0,1140,0,1080,0C1020,0,960,0,900,0C840,0,780,0,720,0C660,0,600,0,540,0C480,0,420,0,360,0C300,0,240,0,180,0C120,0,60,0,30,0L0,0Z"></path></svg>